<?xml version="1.0" encoding="utf-8"?>
<!-- Generator: Adobe Illustrator 21.0.2, SVG Export Plug-In . SVG Version: 6.00 Build 0)  -->
<svg version="1.1" xmlns="http://www.w3.org/2000/svg" xmlns:xlink="http://www.w3.org/1999/xlink" x="0px" y="0px"
	 viewBox="0 0 64 64" style="enable-background:new 0 0 64 64;" xml:space="preserve">
<style type="text/css">
	.st0{fill:#2D2D2D;}
	.st1{fill:#64C88C;}
	.st2{fill:#64C88C;stroke:#64C88C;stroke-width:2;stroke-miterlimit:10;}
	.st3{fill:#FFFFFF;}
	.st4{font-family:'Papyrus-Regular';}
	.st5{font-size:12px;}
</style>
<g id="Layer_1">
	<rect class="st0" width="64" height="64"/>
</g>
<g id="Layer_2">
	<g>
		<g>
			<path class="st1" d="M33.4,33.5c-0.7-6.9,4.9-6,9.2-9.2c4.9-3.6,5.1-9.9,1.8-14.7C41,4.7,34.5,2.7,28.9,4.8
				c-6.2,2.3-9.3,8.7-9.2,15c0,2.5,5.8,1.3,5.8-0.7C25.4,13,29.5,3.4,36.9,9.5c4,3.3,6,10.8,0.7,13.8c-2.4,1.4-5.3,1.7-7.5,3.6
				c-2.6,2.2-2.8,5-2.5,8.2C27.8,37.1,33.6,35.8,33.4,33.5L33.4,33.5z"/>
		</g>
	</g>
	<ellipse class="st2" cx="31.4" cy="41.9" rx="3.6" ry="2.3"/>
	<text transform="matrix(1 0 0 1 18.0684 57.7031)" class="st3 st4 st5">Help</text>
</g>
</svg>
