<?xml version="1.0" encoding="utf-8"?>
<!-- Generator: Adobe Illustrator 21.0.2, SVG Export Plug-In . SVG Version: 6.00 Build 0)  -->
<svg version="1.1"
	 id="SVGRoot" xmlns:cc="http://creativecommons.org/ns#" xmlns:dc="http://purl.org/dc/elements/1.1/" xmlns:rdf="http://www.w3.org/1999/02/22-rdf-syntax-ns#" xmlns:svg="http://www.w3.org/2000/svg"
	 xmlns="http://www.w3.org/2000/svg" xmlns:xlink="http://www.w3.org/1999/xlink" x="0px" y="0px" viewBox="0 0 64 64"
	 style="enable-background:new 0 0 64 64;" xml:space="preserve">
<style type="text/css">
	.st0{fill:#2D2D2D;}
	.st1{fill:#4F6873;}
	.st2{fill:#FFFFFF;}
	.st3{font-family:'Papyrus-Regular';}
	.st4{font-size:14.6667px;}
</style>
<rect id="rect444" x="0.1" y="0" class="st0" width="63.9" height="63.9"/>
<g id="g368" transform="matrix(0.20296088,0,0,-0.20296088,-22.635899,54.782626)">
	<g>
		<g id="g370">
			<g id="g378" transform="translate(366.1406,72.9746)">
				<path id="path380" class="st1" d="M9.6,7.1C12.4,1.7-1.3-11.5-7-9.3L-18-5.4c-3.5,1.2-4,13.9-5.8,17.1
					c-24.3,43.5-6.1,9.8-37.7,54.5c-1.2,1.7-23.3,25.8-24.4,27.5l-14.3,18.5l0,0c-3.3-6.6-10.3-16.7-21.2-34
					c-28.6-45.4-20.9-15.2-51.6,12.1c-50.7,44.9-8.2,44.5,9.7,54.8c13.5,7.7,22.5,11,28.7,11.6l-1.1,1.5c-1.7,2.4,3.6,2.9,6.4,3.9
					l17.5,6.2c7.4,1.3,11.6-4.1,13.1-6.2l9.2-13.1c3.3-10.3,37.9-63.8,69.1-98.4C-2.8,30.7,9.5,7.3,9.6,7.1"/>
			</g>
		</g>
	</g>
</g>
<text transform="matrix(1 0 0 1 13.2582 59.0502)" class="st2 st3 st4">Skills</text>
</svg>
